<?xml version="1.0" standalone="no"?>
<!DOCTYPE svg PUBLIC "-//W3C//DTD SVG 20010904//EN"
 "http://www.w3.org/TR/2001/REC-SVG-20010904/DTD/svg10.dtd">
<svg version="1.0" xmlns="http://www.w3.org/2000/svg"
 width="472.000000pt" height="472.000000pt" viewBox="0 0 472.000000 472.000000"
 preserveAspectRatio="xMidYMid meet">
<metadata>
Created by potrace 1.11, written by Peter Selinger 2001-2013
</metadata>
<g transform="translate(0.000000,472.000000) scale(0.100000,-0.100000)"
fill="#000000" stroke="none">
<path d="M2335 4709 c5 -7 -21 -9 -83 -7 -51 2 -88 -1 -85 -6 3 -5 -19 -7 -50
-4 -31 2 -54 1 -52 -2 3 -4 -23 -11 -58 -14 -34 -4 -108 -18 -165 -32 -56 -14
-108 -22 -115 -18 -6 4 -9 3 -4 -1 9 -10 -102 -47 -121 -40 -7 3 -11 1 -8 -3
7 -11 -203 -94 -216 -86 -7 5 -8 2 -3 -6 5 -8 3 -11 -6 -8 -7 2 -22 -4 -33
-14 -18 -16 -37 -23 -58 -19 -5 0 -8 -4 -8 -9 0 -6 -5 -10 -11 -10 -6 0 -17
-7 -26 -15 -8 -8 -19 -13 -24 -10 -5 4 -9 2 -9 -3 0 -10 -81 -58 -92 -54 -5 1
-8 -2 -8 -7 0 -13 -83 -66 -99 -62 -7 1 -10 -2 -7 -7 7 -11 -59 -64 -68 -55
-3 4 -6 2 -6 -4 0 -15 -130 -119 -144 -115 -6 2 -8 1 -4 -3 6 -7 -35 -55 -47
-55 -6 0 -45 -38 -45 -45 0 -12 -44 -54 -52 -49 -5 3 -7 0 -6 -8 2 -7 -3 -12
-10 -10 -6 1 -11 -2 -10 -6 3 -10 -35 -64 -69 -100 -13 -12 -23 -26 -23 -30 0
-4 -16 -24 -35 -45 -19 -21 -42 -52 -51 -68 -8 -17 -22 -33 -29 -36 -8 -3 -13
-9 -10 -13 3 -5 -2 -15 -10 -23 -8 -9 -15 -19 -15 -22 0 -4 -10 -21 -22 -38
-13 -18 -23 -36 -23 -40 0 -4 -6 -11 -13 -16 -7 -4 -14 -16 -16 -27 -8 -37
-53 -124 -61 -116 -5 4 -5 2 -1 -5 9 -16 -14 -64 -27 -56 -6 3 -7 1 -3 -6 10
-16 -24 -102 -37 -94 -6 3 -7 1 -3 -6 9 -14 -13 -83 -24 -76 -4 3 -6 -5 -2
-17 3 -11 1 -19 -4 -16 -5 4 -9 -9 -10 -27 0 -19 -7 -41 -15 -51 -7 -9 -12
-28 -11 -42 2 -14 0 -22 -6 -18 -6 3 -8 -2 -5 -13 3 -10 -1 -30 -8 -42 -7 -13
-12 -37 -10 -53 2 -20 -1 -26 -10 -21 -8 5 -10 4 -5 -3 8 -13 -15 -203 -24
-197 -3 2 -3 -24 -2 -57 3 -44 1 -58 -8 -53 -8 5 -10 -3 -6 -27 3 -18 7 -106
8 -194 2 -89 6 -160 9 -158 9 5 21 -134 13 -148 -4 -7 -3 -8 4 -4 8 4 12 0 12
-12 0 -10 16 -81 35 -157 19 -76 31 -143 28 -148 -3 -6 -1 -7 4 -4 13 8 27
-39 17 -55 -5 -7 -2 -8 6 -3 10 6 12 3 8 -13 -4 -13 0 -23 9 -26 9 -4 13 -14
10 -26 -3 -11 -1 -18 3 -15 11 7 32 -54 23 -68 -3 -5 -1 -7 4 -4 12 7 36 -50
28 -64 -3 -4 1 -11 9 -16 8 -4 16 -15 18 -23 2 -8 6 -17 9 -20 14 -11 58 -108
52 -114 -4 -3 -2 -6 4 -6 12 0 69 -90 65 -102 -1 -5 2 -8 7 -8 5 0 30 -30 55
-66 26 -36 41 -62 34 -59 -7 4 3 -8 22 -27 19 -18 51 -53 70 -77 19 -25 40
-50 47 -56 7 -7 9 -15 6 -19 -4 -3 -2 -6 4 -6 5 0 50 -39 99 -88 50 -48 114
-105 142 -127 29 -21 52 -43 52 -47 0 -4 6 -8 13 -8 6 0 26 -12 42 -28 17 -15
42 -33 57 -41 15 -8 24 -19 21 -25 -3 -6 -3 -8 2 -4 4 4 30 -8 57 -27 26 -19
53 -35 58 -35 6 0 10 -5 10 -12 0 -6 3 -9 6 -6 5 6 132 -58 144 -71 3 -3 12
-7 20 -9 14 -3 112 -43 215 -88 46 -20 50 -21 71 -23 8 0 13 -5 10 -10 -3 -4
6 -6 21 -3 18 3 24 1 19 -6 -4 -7 -2 -10 6 -7 15 5 141 -28 134 -36 -3 -2 9
-5 27 -5 18 0 46 -4 62 -7 109 -25 281 -39 472 -41 116 0 209 2 207 5 -2 4 29
10 69 14 86 8 245 44 380 86 54 16 103 27 109 23 6 -4 8 -3 5 3 -3 5 31 24 76
43 45 18 111 46 147 63 35 16 70 30 78 31 7 2 18 9 23 17 5 8 9 10 9 6 0 -5 7
-1 16 7 8 9 21 16 28 16 8 0 19 7 26 15 7 8 17 12 23 8 6 -3 7 -1 3 5 -4 7 -2
12 4 12 5 0 53 32 105 70 52 39 97 70 99 70 3 0 16 10 29 22 63 61 151 133
159 130 5 -1 7 1 4 6 -3 5 6 14 19 20 14 7 25 17 25 23 0 6 23 37 52 68 28 31
81 95 118 143 37 48 69 86 71 85 2 -1 3 0 2 2 -3 5 39 64 52 73 5 4 10 11 10
15 1 14 39 73 47 73 4 0 8 6 8 14 0 8 6 21 13 28 6 7 13 18 14 23 6 32 111
243 118 237 5 -4 5 -1 1 6 -4 6 -4 18 1 25 4 6 8 17 9 22 1 6 6 21 12 35 5 14
10 30 12 35 1 6 8 18 17 27 8 9 12 21 9 26 -6 10 13 81 28 100 5 8 11 24 11
35 3 60 5 68 17 61 7 -4 8 -3 4 5 -8 12 14 162 23 156 3 -2 7 18 7 43 1 26 6
147 10 269 5 121 6 219 3 217 -9 -5 -21 164 -13 178 4 6 3 8 -3 5 -12 -7 -47
178 -37 195 4 7 3 9 -1 5 -10 -9 -67 172 -60 191 3 8 0 10 -7 6 -7 -5 -9 0 -6
14 4 12 2 20 -3 17 -4 -3 -12 7 -15 22 -14 53 -168 377 -191 401 -7 7 -13 18
-13 23 0 5 -10 20 -21 32 -12 12 -28 37 -35 55 -8 18 -21 36 -30 39 -8 3 -13
12 -10 20 3 8 2 12 -3 9 -7 -5 -98 101 -104 121 -5 18 -325 328 -343 332 -9 1
-159 115 -165 123 -3 6 -9 8 -12 6 -3 -1 -17 7 -31 19 -14 13 -26 21 -26 18 0
-3 -17 5 -38 19 -20 13 -62 36 -92 51 -30 15 -58 33 -62 39 -4 6 -8 8 -8 3 0
-8 -71 19 -80 31 -3 4 -9 7 -15 7 -25 0 -104 39 -98 48 3 5 1 7 -5 3 -6 -3
-13 -2 -17 4 -4 6 -11 7 -17 4 -5 -4 -20 -2 -31 4 -12 6 -52 18 -89 28 -40 10
-65 21 -61 27 3 6 1 7 -5 3 -16 -9 -83 4 -76 15 3 5 -1 6 -8 4 -8 -3 -67 4
-132 15 -65 11 -134 20 -153 20 -19 0 -32 3 -30 8 3 4 -38 6 -90 4 -66 -2 -93
0 -88 7 4 7 -4 11 -20 11 -16 0 -24 -4 -20 -11z m53 -46 c-15 -2 -42 -2 -60 0
-18 2 -6 4 27 4 33 0 48 -2 33 -4z m-165 -10 c-18 -2 -48 -2 -65 0 -18 2 -4 4
32 4 36 0 50 -2 33 -4z m335 0 c-15 -2 -42 -2 -60 0 -18 2 -6 4 27 4 33 0 48
-2 33 -4z m-439 -7 c-2 -2 -35 -6 -74 -9 -45 -3 -58 -3 -35 2 37 9 116 14 109
7z m539 -3 c-10 -2 -28 -2 -40 0 -13 2 -5 4 17 4 22 1 32 -1 23 -4z m65 -10
c-7 -2 -21 -2 -30 0 -10 3 -4 5 12 5 17 0 24 -2 18 -5z m-858 -30 c-337 -77
-655 -227 -925 -437 -85 -66 -276 -252 -355 -347 -201 -239 -372 -575 -455
-892 -16 -61 -29 -103 -30 -91 0 11 15 77 34 146 150 547 513 1029 1006 1338
191 120 418 217 627 269 152 38 153 39 183 39 14 0 -24 -11 -85 -25z m918 20
c-7 -2 -21 -2 -30 0 -10 3 -4 5 12 5 17 0 24 -2 18 -5z m142 -27 c468 -114
921 -405 1229 -789 195 -243 337 -515 420 -804 30 -105 66 -282 65 -315 0 -12
-9 20 -19 72 -117 623 -468 1159 -991 1511 -209 140 -460 251 -724 319 -60 16
-103 29 -95 29 8 1 60 -10 115 -23z m-617 -133 l3 -122 77 -3 c71 -3 77 -5 80
-25 3 -23 2 -23 -107 -23 l-111 0 0 151 0 150 28 -3 27 -3 3 -122z m-158 94
c0 -21 -7 -24 -77 -35 -42 -7 -78 -14 -80 -15 -1 -2 0 -19 3 -38 l6 -36 47 8
c80 13 101 11 101 -10 0 -22 -11 -27 -89 -36 l-53 -7 5 -35 c4 -20 8 -38 11
-41 3 -2 40 1 82 7 41 7 77 11 79 9 2 -1 5 -12 7 -23 3 -17 -8 -21 -106 -37
-61 -10 -112 -16 -114 -14 -6 7 -45 286 -41 291 5 5 161 32 197 34 17 1 22 -4
22 -22z m434 -59 c-4 -46 -8 -103 -8 -128 -1 -43 0 -45 29 -48 104 -9 115 -12
115 -39 0 -23 -3 -25 -32 -20 -18 4 -66 9 -106 13 -40 4 -74 10 -76 13 -4 6
20 223 30 269 3 16 12 22 30 22 l27 0 -9 -82z m282 29 c5 -14 -49 -274 -59
-284 -3 -3 -17 -1 -30 3 l-24 9 33 140 c18 77 33 141 33 143 3 9 43 0 47 -11z
m-1045 -48 c15 -15 20 -31 17 -61 -2 -34 1 -42 19 -49 46 -17 57 -86 20 -123
-21 -20 -171 -76 -206 -76 -8 0 -90 235 -95 274 -2 13 132 54 182 55 30 1 48
-5 63 -20z m1284 -10 c46 -13 91 -42 105 -69 8 -15 6 -21 -11 -31 -19 -9 -25
-8 -38 9 -23 28 -54 42 -96 42 -47 0 -71 -13 -90 -50 -36 -70 -1 -136 83 -154
31 -7 33 -6 52 38 19 45 32 54 57 38 19 -12 -16 -112 -44 -125 -30 -13 -105 0
-144 26 -54 37 -74 72 -74 130 0 65 30 111 89 138 48 22 58 23 111 8z m413
-203 c7 -31 -27 -27 -92 9 l-65 36 -20 -33 -21 -33 58 -32 c31 -18 61 -34 65
-36 11 -3 -2 -37 -14 -37 -5 0 -36 13 -69 30 -44 22 -61 27 -66 17 -4 -6 -14
-22 -21 -34 -13 -20 -11 -23 61 -63 68 -37 75 -44 66 -61 -6 -10 -12 -19 -14
-19 -9 0 -196 102 -196 107 0 6 75 147 118 221 l24 42 92 -49 c50 -27 92 -57
94 -65z m-2150 48 c3 -18 -4 -23 -34 -29 -21 -3 -50 -20 -67 -36 -28 -28 -29
-32 -14 -47 15 -14 24 -15 75 -4 81 17 109 15 132 -8 26 -26 26 -80 0 -113
-42 -53 -160 -88 -174 -51 -11 29 -6 34 32 34 40 0 99 30 109 56 3 8 -1 23
-10 31 -14 14 -22 14 -80 0 -97 -25 -147 -1 -147 67 0 35 55 93 105 111 51 18
69 15 73 -11z m2320 -147 c55 -40 92 -88 92 -120 0 -50 -58 -107 -109 -107
-21 0 -28 -16 -33 -78 -3 -32 -3 -32 -26 -16 -21 14 -23 23 -20 69 3 50 1 54
-30 76 -20 14 -36 19 -40 13 -32 -47 -42 -56 -57 -51 -8 4 -18 13 -21 21 -7
19 164 248 180 239 6 -4 35 -24 64 -46z m-982 -61 c769 -162 1338 -785 1423
-1558 91 -824 -418 -1615 -1207 -1878 -220 -73 -295 -84 -567 -84 -212 0 -252
2 -345 22 -408 89 -758 297 -1017 605 -103 123 -163 216 -238 372 -172 355
-222 744 -144 1130 106 523 462 990 938 1230 212 106 354 149 636 189 17 2
113 3 215 1 150 -3 208 -9 306 -29z m-1545 -50 l141 -74 -25 -16 c-23 -16 -27
-16 -60 0 l-35 17 -56 -44 c-55 -43 -57 -45 -50 -82 6 -38 -7 -67 -30 -67 -7
0 -27 64 -49 157 -35 147 -36 159 -20 170 9 7 23 13 30 13 7 0 77 -33 154 -74z
m2812 -134 c61 -61 75 -80 65 -90 -20 -20 -30 -15 -88 43 l-56 55 -24 -25 -24
-25 48 -49 c32 -33 47 -55 43 -65 -10 -26 -29 -19 -79 31 l-48 47 -30 -29 -30
-29 60 -61 c47 -48 58 -63 48 -73 -21 -21 -31 -14 -108 63 l-75 75 105 105
c58 58 107 105 110 105 3 0 40 -35 83 -78z m-3064 -61 c111 -94 112 -95 92
-115 -20 -19 -20 -19 -87 38 -36 31 -68 55 -70 53 -2 -2 7 -39 21 -82 15 -50
21 -83 15 -89 -6 -6 -40 -5 -90 3 -45 8 -83 12 -85 9 -2 -2 25 -29 60 -59 36
-29 65 -56 65 -59 -1 -3 -7 -13 -15 -24 -14 -18 -14 -18 -37 0 -66 53 -208
179 -208 185 0 4 7 12 15 19 12 10 37 8 127 -8 62 -11 114 -19 115 -18 2 1
-13 51 -33 109 -29 88 -34 110 -23 123 6 8 15 13 20 12 4 -2 57 -45 118 -97z
m2716 -111 c10 -11 16 -20 13 -20 -3 0 -13 9 -23 20 -10 11 -16 20 -13 20 3 0
13 -9 23 -20z m515 -24 c0 -11 -14 -68 -30 -125 -16 -58 -28 -107 -26 -109 2
-2 37 20 77 49 56 39 76 49 88 42 33 -21 18 -40 -98 -120 -65 -46 -121 -83
-124 -83 -4 0 -11 9 -17 20 -8 15 -2 47 24 140 18 66 32 120 31 120 -2 0 -39
-25 -83 -55 -80 -55 -93 -57 -104 -18 -2 7 51 51 117 97 123 86 145 92 145 42z
m-365 -126 c10 -11 16 -20 13 -20 -3 0 -13 9 -23 20 -10 11 -16 20 -13 20 3 0
13 -9 23 -20z m-3143 -61 c68 -39 124 -73 126 -74 5 -5 -22 -45 -30 -45 -4 0
-30 13 -58 30 l-50 30 -26 -43 c-14 -23 -33 -53 -41 -65 -8 -13 -13 -25 -11
-26 2 -1 26 -15 53 -31 28 -15 51 -29 53 -31 7 -5 -19 -44 -28 -44 -14 0 -260
141 -260 149 0 3 7 14 15 25 13 17 16 17 68 -13 l53 -30 37 63 c20 34 37 66
37 69 0 4 -17 16 -37 26 -65 34 -66 36 -54 60 7 11 16 21 21 21 5 0 64 -32
132 -71z m3744 -170 c43 -87 53 -114 42 -120 -24 -16 -35 -9 -53 31 -10 22
-22 40 -27 40 -4 0 -57 -24 -117 -54 l-108 -55 -12 26 c-6 14 -10 27 -9 28 2
2 50 26 108 55 58 29 107 54 109 56 2 2 -4 21 -14 43 -9 22 -14 44 -11 50 18
28 39 4 92 -100z m-396 -49 c6 -11 8 -20 6 -20 -3 0 -10 9 -16 20 -6 11 -8 20
-6 20 3 0 10 -9 16 -20z m71 -131 c22 -45 39 -83 37 -85 -2 -2 -23 35 -46 81
-23 47 -40 85 -37 85 3 0 23 -36 46 -81z m59 -134 c0 -5 -5 -3 -10 5 -5 8 -10
20 -10 25 0 6 5 3 10 -5 5 -8 10 -19 10 -25z m20 -50 c0 -5 -5 -3 -10 5 -5 8
-10 20 -10 25 0 6 5 3 10 -5 5 -8 10 -19 10 -25z m47 -157 c-3 -8 -6 -5 -6 6
-1 11 2 17 5 13 3 -3 4 -12 1 -19z m10 -40 c-3 -8 -6 -5 -6 6 -1 11 2 17 5 13
3 -3 4 -12 1 -19z m-4090 -30 c-3 -7 -5 -2 -5 12 0 14 2 19 5 13 2 -7 2 -19 0
-25z m4100 -10 c-3 -8 -6 -5 -6 6 -1 11 2 17 5 13 3 -3 4 -12 1 -19z m-4113
-72 c-4 -31 -9 -54 -12 -52 -2 3 -1 30 3 61 3 31 9 55 11 52 3 -2 2 -30 -2
-61z m4123 22 c-3 -7 -5 -2 -5 12 0 14 2 19 5 13 2 -7 2 -19 0 -25z m10 -55
c-3 -10 -5 -4 -5 12 0 17 2 24 5 18 2 -7 2 -21 0 -30z m442 -167 c2 -98 -6
-59 -12 59 -3 75 -2 92 3 55 4 -30 8 -82 9 -114z m-432 97 c-3 -10 -5 -2 -5
17 0 19 2 27 5 18 2 -10 2 -26 0 -35z m-4160 -30 c-2 -16 -4 -5 -4 22 0 28 2
40 4 28 2 -13 2 -35 0 -50z m4170 -80 c-2 -16 -4 -3 -4 27 0 30 2 43 4 28 2
-16 2 -40 0 -55z m-4180 -205 c-1 -46 -3 -9 -3 82 0 91 2 128 3 83 2 -46 2
-120 0 -165z m155 162 l47 -24 51 28 c27 15 50 25 50 23 0 -3 -12 -26 -26 -52
l-27 -47 24 -47 c13 -25 25 -50 28 -55 2 -5 -18 3 -44 17 -59 33 -65 33 -116
1 -23 -14 -43 -24 -45 -22 -2 2 10 26 25 53 l29 50 -31 54 c-17 30 -26 52 -21
50 5 -3 30 -15 56 -29z m4210 0 l47 -24 51 28 c27 15 50 25 50 23 0 -3 -12
-26 -26 -52 l-27 -47 24 -47 c13 -25 25 -50 28 -55 2 -5 -18 3 -44 17 -59 33
-65 33 -116 1 -23 -14 -43 -24 -45 -22 -2 2 10 26 25 53 l29 50 -31 54 c-17
30 -26 52 -21 50 5 -3 30 -15 56 -29z m-175 -133 c-2 -23 -3 -1 -3 48 0 50 1
68 3 42 2 -26 2 -67 0 -90z m410 -89 c-1 -40 -3 -8 -3 72 0 80 2 112 3 73 2
-40 2 -106 0 -145z m-4180 165 c-3 -10 -5 -4 -5 12 0 17 2 24 5 18 2 -7 2 -21
0 -30z m0 -85 c-2 -13 -4 -5 -4 17 -1 22 1 32 4 23 2 -10 2 -28 0 -40z m3760
-130 c-2 -18 -4 -6 -4 27 0 33 2 48 4 33 2 -15 2 -42 0 -60z m-4164 -73 c4
-57 3 -69 -3 -40 -9 40 -13 132 -6 124 2 -2 6 -40 9 -84z m414 53 c-3 -8 -6
-5 -6 6 -1 11 2 17 5 13 3 -3 4 -12 1 -19z m4158 -95 c-4 -35 -9 -63 -11 -60
-2 2 -1 37 2 78 4 41 9 68 12 61 2 -8 1 -43 -3 -79z m-435 -70 c-139 -690
-656 -1252 -1326 -1442 -60 -17 -147 -38 -194 -47 -119 -22 -425 -30 -558 -14
-611 72 -1147 441 -1441 992 -28 52 -51 99 -51 104 0 5 22 -32 49 -83 207
-390 518 -680 919 -858 224 -99 427 -144 689 -152 383 -12 714 75 1049 278
311 187 591 512 738 857 63 147 132 395 137 491 2 23 2 23 6 4 2 -13 -5 -71
-17 -130z m-3713 85 c-3 -8 -6 -5 -6 6 -1 11 2 17 5 13 3 -3 4 -12 1 -19z m10
-60 c-3 -8 -6 -5 -6 6 -1 11 2 17 5 13 3 -3 4 -12 1 -19z m-331 -368 c55 -165
179 -421 267 -553 274 -407 653 -708 1117 -887 58 -23 92 -38 76 -35 -96 20
-352 141 -511 241 -418 264 -760 682 -929 1135 -43 116 -103 343 -111 419 -3
31 6 3 20 -65 14 -66 46 -181 71 -255z m341 318 c-3 -8 -6 -5 -6 6 -1 11 2 17
5 13 3 -3 4 -12 1 -19z m4108 -33 c-4 -25 -9 -44 -12 -41 -2 2 -1 25 2 51 4
25 9 44 12 41 2 -2 1 -25 -2 -51z m-50 -205 c-46 -160 -92 -277 -167 -420
-148 -285 -382 -571 -610 -744 -68 -52 -49 -33 81 77 322 276 587 705 698
1131 15 59 29 101 31 94 1 -8 -13 -70 -33 -138z m-4028 118 c-3 -8 -6 -5 -6 6
-1 11 2 17 5 13 3 -3 4 -12 1 -19z m63 -173 c0 -5 -5 -3 -10 5 -5 8 -10 20
-10 25 0 6 5 3 10 -5 5 -8 10 -19 10 -25z m-98 -25 c33 0 40 -4 49 -27 9 -25
4 -33 -98 -135 -59 -59 -111 -108 -115 -108 -4 0 -11 11 -14 26 -5 18 -1 31
15 48 26 28 26 33 -3 100 -23 51 -27 55 -62 58 -28 2 -39 9 -46 27 l-9 24 122
-6 c67 -4 140 -7 161 -7z m127 -45 c0 -5 -6 1 -14 15 -8 14 -14 30 -14 35 0 6
6 -1 14 -15 8 -14 14 -29 14 -35z m3688 0 c28 -32 30 -84 4 -141 l-19 -42 39
-17 c34 -16 37 -20 27 -39 -6 -11 -12 -22 -13 -23 -2 -3 -258 106 -263 112 -2
2 12 38 32 79 24 49 46 81 64 91 39 22 101 13 129 -20z m-3658 -210 c51 -93
53 -99 35 -112 -16 -12 -20 -10 -40 22 -11 19 -24 38 -27 41 -3 3 -53 -19
-111 -50 l-106 -57 -12 26 c-6 14 -9 27 -7 29 2 2 50 27 107 55 l102 51 -21
42 c-17 33 -18 42 -7 49 23 15 32 5 87 -96z m3586 -101 c58 -31 64 -37 55 -55
-6 -10 -15 -19 -20 -19 -11 0 -231 117 -243 129 -5 5 -3 18 4 29 14 23 -8 32
204 -84z m-130 -81 c63 -42 115 -82 115 -88 0 -7 -6 -18 -14 -24 -12 -10 -23
-6 -57 18 -23 17 -46 31 -50 31 -9 0 -93 -110 -87 -114 1 -2 24 -17 50 -35 43
-28 46 -34 35 -51 -6 -11 -15 -20 -20 -20 -7 0 -212 134 -231 151 -6 5 -2 17
8 28 18 20 19 20 62 -9 23 -17 46 -30 51 -30 8 0 83 103 83 113 0 3 -17 16
-37 29 -20 13 -41 26 -46 29 -9 6 8 49 18 49 3 0 57 -34 120 -77z m-3365 27
c8 -16 -3 -26 -88 -81 -53 -34 -99 -63 -101 -65 -2 -2 16 -30 40 -64 41 -58
41 -61 23 -74 -10 -8 -19 -14 -20 -13 -1 1 -24 34 -51 72 -27 39 -52 75 -56
82 -8 13 221 175 235 166 5 -2 12 -12 18 -23z m3094 -226 c8 -20 10 -17 -31
-38 -34 -17 -64 -62 -56 -83 7 -21 40 -15 100 17 66 36 82 37 117 9 54 -43 21
-133 -67 -179 -41 -22 -49 -23 -57 -10 -15 23 -12 30 18 41 69 26 112 109 57
109 -14 0 -43 -11 -64 -25 -72 -45 -113 -42 -147 10 -23 35 -4 85 49 130 44
38 71 44 81 19z m-2892 -24 c7 -11 -8 -55 -53 -158 -62 -138 -64 -141 -82
-123 -17 17 -18 22 -6 55 l13 37 -50 50 c-48 48 -51 49 -83 38 -29 -10 -35 -9
-53 9 l-21 20 139 45 c145 47 181 52 196 27z m167 -154 c29 -16 91 -80 91 -96
0 -16 -44 -24 -49 -9 -9 28 -60 69 -86 69 -41 0 -40 -25 4 -91 23 -34 41 -70
41 -81 0 -32 -45 -68 -84 -68 -39 0 -108 47 -135 93 -15 27 -15 29 3 43 18 12
21 11 36 -14 28 -45 66 -74 91 -70 36 5 34 33 -5 87 -42 56 -46 94 -14 128 25
27 66 30 107 9z m2590 -31 c21 -20 26 -35 25 -70 -1 -43 1 -45 35 -55 70 -22
68 -20 44 -40 -22 -17 -26 -17 -72 -3 -47 16 -50 15 -80 -6 l-31 -22 25 -33
25 -33 -20 -18 c-12 -11 -24 -15 -29 -9 -67 76 -171 217 -165 223 124 105 187
122 243 66z m-253 -240 c125 -94 126 -94 100 -106 -23 -11 -30 -10 -54 8 l-27
20 -62 -31 c-61 -29 -63 -32 -63 -68 0 -28 -5 -40 -21 -48 -11 -7 -22 -10 -24
-8 -3 3 -25 260 -25 294 0 9 29 29 48 33 1 1 59 -42 128 -94z m-2001 64 c43
-12 109 -71 103 -91 -8 -24 -35 -19 -65 11 -53 52 -117 51 -157 -2 -49 -67 -1
-157 84 -157 28 0 42 -5 49 -19 12 -22 -2 -31 -50 -31 -78 0 -150 63 -156 137
-6 65 20 111 77 141 50 25 60 26 115 11z m1745 -58 c11 -22 10 -24 -43 -41
-44 -14 -45 -3 6 -142 20 -54 33 -98 29 -98 -4 0 -16 -3 -28 -6 -19 -5 -25 6
-59 103 -21 59 -39 109 -40 111 -1 1 -21 -5 -45 -13 -35 -12 -45 -13 -52 -3
-16 27 -5 35 100 70 129 44 119 42 132 19z m-1532 -26 c2 -1 -13 -52 -33 -112
-19 -61 -35 -112 -35 -114 0 -3 32 -13 70 -24 52 -14 70 -24 70 -36 0 -10 -4
-20 -8 -23 -7 -4 -103 21 -189 49 -8 3 1 42 27 124 51 164 46 154 72 145 13
-3 24 -8 26 -9z m2052 -29 c0 -3 -15 -14 -32 -26 l-33 -22 30 26 c31 27 35 29
35 22z m-772 -43 c3 -21 0 -23 -50 -23 -61 0 -92 -17 -86 -46 3 -16 15 -20 73
-27 91 -10 115 -26 115 -77 0 -30 -6 -43 -26 -59 -36 -28 -99 -44 -143 -36
-47 9 -50 11 -44 34 4 17 11 19 59 14 40 -4 60 -2 79 11 53 35 17 66 -76 66
-85 0 -125 64 -78 124 24 31 68 45 129 43 38 -2 45 -5 48 -24z m-970 -1 c12
-8 96 -291 88 -299 -2 -2 -15 -1 -30 3 -19 4 -27 14 -32 39 -6 33 -8 34 -76
45 l-70 12 -26 -32 c-22 -26 -31 -30 -50 -23 -21 8 -19 13 65 136 83 121 101
138 131 119z m331 -33 c35 -12 35 -13 21 -39 -9 -17 -12 -17 -54 -2 -36 13
-49 14 -71 4 -46 -21 -30 -51 42 -77 80 -28 93 -40 93 -79 0 -70 -94 -106
-185 -71 -45 17 -52 28 -36 54 7 11 13 11 32 -3 30 -21 112 -21 129 -1 18 22
-2 42 -63 60 -84 25 -120 79 -84 126 30 39 109 51 176 28z m259 5 c23 -6 27
-20 14 -41 -5 -8 -18 -9 -47 -1 -53 14 -98 -3 -93 -34 3 -22 13 -27 95 -48 54
-14 73 -33 73 -74 0 -70 -105 -109 -193 -72 -34 14 -37 18 -27 36 9 17 14 18
31 9 32 -17 108 -15 126 4 26 26 8 43 -64 60 -72 18 -103 42 -103 81 0 28 26
65 54 76 25 10 101 12 134 4z m1007 -30 c-26 -20 -55 -36 -55 -30 0 5 63 46
70 46 3 -1 -4 -8 -15 -16z m-65 -39 c0 -2 -18 -14 -40 -25 -22 -11 -40 -18
-40 -15 0 2 17 13 38 24 42 23 42 23 42 16z m-90 -50 c0 -6 -76 -45 -87 -45
-4 1 12 12 37 25 50 27 50 27 50 20z m-130 -65 c-19 -11 -39 -19 -45 -19 -5 0
6 8 25 19 19 11 40 19 45 19 6 0 -6 -8 -25 -19z m-70 -30 c-8 -5 -19 -10 -25
-10 -5 0 -3 5 5 10 8 5 20 10 25 10 6 0 3 -5 -5 -10z m-50 -19 c-8 -5 -26 -11
-40 -15 -21 -5 -20 -3 5 9 32 15 60 20 35 6z m-1453 -57 c-3 -3 -12 -4 -19 -1
-8 3 -5 6 6 6 11 1 17 -2 13 -5z m1290 0 c-3 -3 -12 -4 -19 -1 -8 3 -5 6 6 6
11 1 17 -2 13 -5z m-1220 -20 c-3 -3 -12 -4 -19 -1 -8 3 -5 6 6 6 11 1 17 -2
13 -5z m40 -10 c-3 -3 -12 -4 -19 -1 -8 3 -5 6 6 6 11 1 17 -2 13 -5z m50 -10
c-3 -3 -12 -4 -19 -1 -8 3 -5 6 6 6 11 1 17 -2 13 -5z m970 0 c-3 -3 -12 -4
-19 -1 -8 3 -5 6 6 6 11 1 17 -2 13 -5z m-924 -11 c-7 -2 -19 -2 -25 0 -7 3
-2 5 12 5 14 0 19 -2 13 -5z m874 1 c-3 -3 -12 -4 -19 -1 -8 3 -5 6 6 6 11 1
17 -2 13 -5z m-814 -11 c-7 -2 -19 -2 -25 0 -7 3 -2 5 12 5 14 0 19 -2 13 -5z
m760 0 c-7 -2 -19 -2 -25 0 -7 3 -2 5 12 5 14 0 19 -2 13 -5z m-690 -10 c-7
-2 -21 -2 -30 0 -10 3 -4 5 12 5 17 0 24 -2 18 -5z m620 0 c-7 -2 -19 -2 -25
0 -7 3 -2 5 12 5 14 0 19 -2 13 -5z m-535 -10 c-10 -2 -26 -2 -35 0 -10 3 -2
5 17 5 19 0 27 -2 18 -5z m455 0 c-7 -2 -21 -2 -30 0 -10 3 -4 5 12 5 17 0 24
-2 18 -5z m-170 -10 c-40 -2 -106 -2 -145 0 -40 1 -8 3 72 3 80 0 112 -2 73
-3z"/>
<path d="M1675 4438 c-16 -6 -31 -12 -33 -13 -2 -2 19 -67 24 -74 6 -7 103 31
114 44 6 8 9 23 5 35 -5 15 -14 20 -43 19 -20 0 -50 -5 -67 -11z"/>
<path d="M1735 4323 c-27 -8 -52 -16 -53 -18 -2 -2 1 -20 8 -40 11 -34 14 -37
43 -31 81 16 125 58 97 91 -15 18 -31 18 -95 -2z"/>
<path d="M3591 4095 l-32 -45 47 -30 c27 -16 51 -30 55 -30 19 0 59 44 59 65
0 23 -62 85 -86 85 -6 0 -25 -20 -43 -45z"/>
<path d="M2180 4063 c-261 -27 -545 -131 -765 -278 -449 -301 -719 -759 -765
-1297 -58 -686 328 -1361 955 -1668 322 -158 717 -211 1072 -145 174 33 403
119 556 211 168 101 391 303 502 454 375 513 439 1178 169 1750 -254 535 -757
895 -1354 969 -79 10 -291 12 -370 4z m205 -233 c13 -73 17 -216 22 -998 l6
-913 -29 2 c-16 1 -42 -2 -57 -6 l-28 -8 6 884 c6 832 11 980 37 1103 13 61
21 49 43 -64z m670 -217 c11 -58 22 -71 68 -81 23 -5 35 -11 27 -14 -8 -3 -28
-9 -45 -14 -24 -8 -33 -19 -46 -58 -17 -51 -22 -51 -33 -1 -10 42 -22 53 -70
67 l-41 11 43 9 c36 8 46 15 58 43 8 19 14 44 14 55 0 34 17 22 25 -17z
m-1269 -113 l46 -69 57 -3 c49 -3 56 -6 59 -25 2 -15 10 -23 23 -23 26 0 25
-36 -1 -43 -16 -4 -20 -14 -20 -46 0 -34 3 -41 20 -41 27 0 27 -40 1 -47 -11
-3 -21 -13 -24 -24 -4 -16 -14 -19 -59 -19 -50 0 -55 -2 -72 -32 -80 -138
-134 -143 -196 -18 -26 52 -35 60 -72 60 -21 0 -28 6 -33 29 -3 15 -19 41 -35
56 -17 16 -30 32 -30 37 0 4 14 23 30 41 17 19 30 41 30 50 0 21 20 35 55 39
25 2 35 12 58 58 31 63 59 90 93 90 18 0 34 -16 70 -70z m1018 -176 c14 -21
80 -44 128 -44 36 -1 1 -16 -54 -24 -26 -4 -54 -14 -63 -22 -16 -17 -45 -104
-46 -143 0 -14 -9 8 -20 49 -21 83 -40 106 -97 115 -20 4 -48 10 -62 15 -25 8
-25 8 5 9 43 1 102 19 118 36 8 8 23 47 33 87 l18 73 13 -64 c7 -36 20 -75 27
-87z m634 -133 c17 -55 15 -80 -11 -147 -53 -134 -120 -253 -203 -359 -47 -60
-95 -120 -108 -133 l-22 -22 -2 35 c-2 30 7 47 61 113 89 110 117 153 176 270
53 106 81 192 81 249 0 45 14 42 28 -6z m-388 -32 c0 -11 6 -35 14 -53 12 -29
21 -35 58 -41 45 -8 39 -16 -24 -29 -22 -5 -30 -15 -39 -49 -19 -71 -22 -73
-30 -28 -11 55 -22 68 -73 82 l-41 12 40 11 c43 12 75 57 75 104 0 13 4 20 10
17 6 -3 10 -15 10 -26z m-1655 -99 l47 -70 54 0 c49 0 54 -2 60 -25 4 -16 13
-25 25 -25 12 0 19 -7 19 -20 0 -13 -7 -20 -20 -20 -17 0 -20 -7 -20 -45 0
-38 3 -45 20 -45 13 0 20 -7 20 -20 0 -13 -7 -20 -19 -20 -12 0 -21 -9 -25
-25 -6 -23 -11 -25 -61 -25 l-54 0 -43 -65 c-39 -60 -45 -65 -78 -65 -42 0
-62 19 -99 92 -21 42 -27 47 -60 50 -30 3 -36 7 -39 29 -2 15 -16 39 -33 55
-35 34 -36 44 -4 82 13 16 29 41 34 56 8 20 17 26 40 26 24 0 36 8 56 37 14
21 25 44 25 52 0 27 42 61 76 61 29 0 37 -7 79 -70z m2267 -114 c2 -62 -145
-300 -239 -387 -58 -52 -168 -129 -185 -129 -6 0 -7 14 -3 32 5 23 39 62 121
141 134 129 221 250 255 357 23 69 23 70 36 45 8 -14 14 -40 15 -59z m68 -351
c-24 -50 -134 -182 -182 -218 -75 -57 -238 -134 -238 -112 0 27 36 61 111 106
92 54 202 152 257 227 29 41 37 60 58 137 8 26 9 21 12 -33 2 -49 -2 -74 -18
-107z m-1940 30 l42 -65 54 0 c48 0 54 -2 60 -24 3 -13 14 -26 25 -29 26 -7
26 -47 -1 -47 -17 0 -20 -7 -20 -40 0 -33 3 -40 20 -40 15 0 20 -7 20 -25 0
-18 -5 -25 -19 -25 -11 0 -21 -9 -24 -22 -5 -20 -12 -23 -59 -23 -52 0 -53 -1
-84 -47 -46 -71 -64 -88 -93 -88 -36 1 -54 17 -85 78 -15 29 -32 54 -39 56
-60 16 -71 23 -78 50 -5 16 -20 41 -34 56 -29 31 -26 48 14 84 12 11 21 27 21
36 0 23 19 38 55 42 24 2 34 13 58 58 39 75 44 80 87 80 35 0 40 -4 80 -65z
m1195 -149 c-9 -28 -41 -89 -70 -136 -62 -99 -105 -183 -105 -204 0 -8 25 -41
56 -72 121 -124 143 -244 64 -352 -49 -68 -143 -106 -297 -118 l-83 -7 0 -34
c0 -19 5 -43 11 -55 10 -18 8 -19 -13 -13 -22 7 -22 7 -6 -11 10 -12 14 -25 9
-33 -7 -10 -16 -9 -49 8 -22 11 -44 26 -48 32 -4 7 -9 45 -11 85 l-3 74 92 -1
c111 -1 237 23 295 57 80 46 106 159 54 233 -12 17 -56 54 -98 83 -122 84
-121 107 22 281 121 148 138 174 160 247 26 85 29 89 33 36 2 -28 -4 -71 -13
-100z m187 -61 c-16 -53 -21 -60 -50 -66 -17 -3 -43 -14 -58 -23 -49 -33 -36
-7 42 85 44 51 80 86 82 78 1 -8 -6 -41 -16 -74z m573 -77 c-18 -83 -82 -156
-184 -211 -56 -31 -208 -64 -222 -50 -15 15 26 45 97 70 125 43 259 134 293
197 19 35 24 33 16 -6z m-475 -47 c0 -6 -42 -74 -55 -89 -2 -2 -36 -10 -76
-19 -41 -8 -81 -19 -91 -24 -10 -5 -19 -5 -23 0 -9 15 98 92 162 117 64 25 83
28 83 15z m-823 -128 c-3 -10 -5 -2 -5 17 0 19 2 27 5 18 2 -10 2 -26 0 -35z
m841 -68 c-43 -41 -51 -45 -97 -45 -49 0 -72 13 -55 30 9 9 169 59 189 59 6 0
-11 -20 -37 -44z m-838 -100 c0 -41 -4 -75 -9 -75 -5 0 -8 15 -7 33 2 17 4 51
5 75 2 72 11 46 11 -33z m1291 56 c-26 -47 -125 -107 -221 -135 -72 -20 -186
-31 -193 -19 -13 21 48 50 118 56 95 9 127 19 215 71 86 50 95 53 81 27z
m-415 -79 c-12 -20 -86 -63 -96 -57 -6 4 -27 7 -46 7 -26 0 -34 4 -34 17 0 17
20 22 168 39 7 1 11 -2 8 -6z m-94 -152 c85 -16 88 -20 34 -40 -44 -17 -47
-17 -83 1 -20 10 -40 24 -44 31 -10 16 0 31 16 24 8 -3 42 -10 77 -16z m443
-5 c-68 -56 -170 -85 -297 -85 -50 0 -68 4 -68 13 0 24 52 39 149 44 61 3 116
13 160 28 84 30 93 30 56 0z m-483 -126 c61 -31 62 -31 37 -45 -28 -16 -59
-18 -59 -4 0 5 -13 16 -30 25 -18 9 -30 23 -30 35 0 27 10 25 82 -11z m293
-78 c94 -6 98 -7 70 -20 -60 -27 -282 -24 -292 5 -6 18 40 34 82 28 22 -3 85
-9 140 -13z m-354 -57 c39 -19 69 -38 66 -41 -3 -3 -30 -8 -59 -12 -51 -6 -54
-5 -82 27 -23 26 -26 35 -16 47 7 8 14 15 16 15 3 0 36 -16 75 -36z m-116
-119 c25 -25 45 -48 45 -50 0 -3 -16 -5 -35 -5 -29 0 -36 4 -41 25 -3 14 -15
32 -26 39 -19 14 -17 36 2 36 5 0 30 -20 55 -45z m294 15 c41 -11 88 -20 105
-21 17 0 40 -4 51 -8 29 -12 -101 -25 -156 -16 -54 8 -149 35 -149 41 0 7 42
23 60 23 8 0 48 -8 89 -19z m-786 -57 c12 -15 14 -32 8 -98 l-7 -80 -22 45
c-21 44 -28 103 -16 134 8 21 17 20 37 -1z m402 -70 c25 -27 45 -51 45 -54 0
-9 -88 8 -138 27 -35 13 -41 19 -31 30 6 8 17 14 24 14 7 0 18 7 25 15 19 23
27 19 75 -32z m340 -15 c74 -21 64 -31 -25 -25 -99 7 -163 23 -157 40 6 20 50
24 97 10 25 -7 63 -18 85 -25z m-625 -15 c0 -27 7 -73 15 -103 8 -30 13 -56
11 -57 -7 -7 -75 86 -82 111 -3 14 -3 42 0 61 6 29 11 35 31 35 23 0 25 -4 25
-47z m191 -115 c58 -53 55 -54 -50 -16 -45 17 -56 26 -71 62 -10 22 -21 57
-25 76 l-6 35 49 -54 c27 -30 73 -76 103 -103z m337 15 l27 -22 -42 10 c-82
18 -134 53 -117 80 6 10 86 -32 132 -68z m-174 -60 c20 -26 33 -49 27 -51 -5
-2 -28 6 -50 18 -34 17 -41 25 -41 50 0 43 21 38 64 -17z"/>
<path d="M1828 3409 c-32 -18 -19 -29 33 -29 43 0 50 3 47 18 -4 20 -54 27
-80 11z"/>
<path d="M1817 3333 c-14 -4 -17 -13 -15 -41 l3 -37 53 -3 53 -3 -3 43 c-3 42
-4 43 -38 45 -19 0 -43 -1 -53 -4z"/>
<path d="M1810 3191 c0 -13 26 -21 66 -21 24 0 34 5 34 15 0 11 -12 15 -50 15
-27 0 -50 -4 -50 -9z"/>
<path d="M1425 2970 c-11 -19 6 -30 46 -30 32 0 39 3 39 20 0 17 -7 20 -39 20
-22 0 -43 -4 -46 -10z"/>
<path d="M1417 2893 c-4 -3 -7 -21 -7 -38 0 -28 4 -33 31 -39 64 -13 69 -10
69 39 l0 45 -43 0 c-24 0 -47 -3 -50 -7z"/>
<path d="M1420 2756 c0 -14 29 -26 68 -26 15 0 22 6 22 20 0 17 -7 20 -45 20
-32 0 -45 -4 -45 -14z"/>
<path d="M1828 2539 c-32 -18 -19 -29 33 -29 43 0 50 3 47 18 -4 20 -54 27
-80 11z"/>
<path d="M1802 2423 l3 -38 53 -3 52 -3 0 40 0 41 -56 0 -55 0 3 -37z"/>
<path d="M1812 2318 c3 -7 25 -14 51 -16 37 -2 47 0 47 12 0 12 -12 16 -51 16
-36 0 -49 -4 -47 -12z"/>
<path d="M1020 4062 c0 -4 8 -33 18 -65 l17 -57 38 31 c20 17 37 34 37 38 0 4
-25 19 -55 34 -30 15 -55 23 -55 19z"/>
<path d="M386 1563 c9 -21 18 -44 21 -51 4 -9 20 0 50 30 l44 43 -28 6 c-15 4
-45 7 -66 8 l-37 1 16 -37z"/>
<path d="M4222 1573 c-13 -5 -52 -74 -52 -91 0 -5 22 -18 49 -30 l48 -20 17
34 c22 48 20 80 -6 98 -23 16 -34 18 -56 9z"/>
<path d="M848 928 c-32 -11 -58 -23 -58 -27 0 -4 15 -21 33 -39 l33 -32 27 56
c16 31 27 57 25 59 -2 1 -29 -6 -60 -17z"/>
<path d="M3581 750 l-42 -31 33 -39 c18 -22 37 -40 41 -40 5 0 24 12 43 26 39
30 46 70 16 97 -26 24 -43 21 -91 -13z"/>
<path d="M3343 555 c4 -22 7 -52 7 -67 l0 -28 45 22 c25 12 45 24 45 27 -1 4
-24 24 -52 46 l-51 39 6 -39z"/>
<path d="M1921 353 l-31 -48 23 -7 c12 -3 35 -6 51 -7 26 -1 28 1 22 25 -4 15
-10 39 -13 55 -3 16 -9 29 -13 29 -4 0 -22 -21 -39 -47z"/>
</g>
</svg>
